<?xml version="1.0" standalone="no"?>
<!DOCTYPE svg PUBLIC "-//W3C//DTD SVG 20010904//EN"
 "http://www.w3.org/TR/2001/REC-SVG-20010904/DTD/svg10.dtd">
<svg version="1.0" xmlns="http://www.w3.org/2000/svg"
 width="553.000000pt" height="553.000000pt" viewBox="0 0 553.000000 553.000000"
 preserveAspectRatio="xMidYMid meet">
<metadata>
Created by potrace 1.14, written by Peter Selinger 2001-2017
</metadata>
<g transform="translate(0.000000,553.000000) scale(0.100000,-0.100000)"
fill="#000000" stroke="none">
<path d="M2579 5525 c-2 -1 -33 -6 -69 -9 -203 -20 -442 -91 -655 -195 -166
-81 -288 -160 -416 -268 -490 -412 -751 -974 -747 -1605 1 -309 57 -567 181
-843 239 -532 698 -941 1257 -1119 l105 -33 28 -74 c15 -41 36 -96 46 -124 29
-76 369 -1019 399 -1107 14 -43 29 -74 33 -70 4 4 46 108 93 232 48 124 91
234 96 245 14 30 291 736 300 765 4 14 18 49 31 78 l24 53 135 45 c778 260
1323 949 1405 1774 7 71 8 343 1 375 -2 11 -7 49 -11 85 -4 36 -19 121 -35
190 -176 779 -789 1389 -1570 1561 -146 33 -271 46 -444 47 -101 0 -186 -1
-187 -3z"/>
</g>
</svg>
